<mxfile host="app.diagrams.net" modified="2022-04-17T04:55:33.781Z" agent="5.0 (Windows)" etag="OUOLGoP4_iNAO5r_1DS7" version="17.4.5" type="github">
  <diagram id="7gi-rk_2gdNX7hOad68h" name="Page-1">
    <mxGraphModel dx="782" dy="384" grid="1" gridSize="10" guides="1" tooltips="1" connect="1" arrows="1" fold="1" page="1" pageScale="1" pageWidth="827" pageHeight="1169" math="0" shadow="0">
      <root>
        <mxCell id="0" />
        <mxCell id="1" parent="0" />
        <mxCell id="vpgI34eUt77gZHImRmgY-1" value="kaggle nlp比赛" style="rounded=1;whiteSpace=wrap;html=1;" vertex="1" parent="1">
          <mxGeometry x="40" y="100" width="120" height="60" as="geometry" />
        </mxCell>
      </root>
    </mxGraphModel>
  </diagram>
</mxfile>
